# xmcd
#
# Track frame offsets:
#	150
#	10775
#	24245
#	33872
#	44965
#	56335
#	68312
#	80737
#	88695
#	98832
#	106707
#	114555
#	123167
#	133955
#	149035
#	158840
#	172240
#	184277
#	192880
#	204610
#	216320
#	225835
#	245955
# Disc length: 3417 seconds
# Revision: 1
# Processed by: cddbd v1.5.2PL0 Copyright (c) Steve Scherf et al.
#
# Submitted via: libkcddb 0.10
#
DISCID=470d5717
DTITLE=Hector Ballario - Grupo Conviccion
DYEAR=1900
DGENRE=
TTITLE0=CONTRACOLPEANDO (H. Ballario)
TTITLE1=AL VALIANTE CAMIONERO (H. Ballario)
TTITLE2=ALBORADA Y ACORDEON (H. Ballario - A. Furlan)
TTITLE3=GALOPE COLI (H. Ballario)
TTITLE4=LARGANDO DE LA GATERA (H. Ballario - J. Chazerreta)
TTITLE5=MALVITA (E. Gimenez)
TTITLE6=EL ENGARRONADO (T. Ros - Chamorro)
TTITLE7=ESA TIERRA DE SANTAGIO (Delter - Estigarribia)
TTITLE8=MI BIEN AMADA (T. Cocomarola)
TTITLE9=PASO LAGUNA (R. Merlo)
TTITLE10=OBRAJERO DE MI PAGO (Gutierrez - Fernandez)
TTITLE11=BAILANDO EN EL PIQUETTE (Coquimarola - Balmaceda)
TTITLE12=LA RATONERA (E. Montiel)
TTITLE13=RIO GRANDESE  (A. Tarrago - Ellwagner)
TTITLE14=PONCHO VIENTO Y CHAMAME (H. Ballario - J. Chazarreta)
TTITLE15=EL SANCOSMENO (Cocomarola /Guerra)
TTITLE16=CUANDO TE VAYAS GUAINITA (Cardozo /Colutti)
TTITLE17=POP LLEGAR A SAN JAVIER (M. Merlo)
TTITLE18=PAMPA CEFERINO (C. Andariego)
TTITLE19=LAGUNA TOTORAS (Cocomarola)
TTITLE20=MONJON DEL ADIOS (D. Gonzalez)
TTITLE21=CASI GRINGO (L. Landricina /Al Pato Perez de T. Aguilar /E. Irrazabal)
TTITLE22=OCTAVA A MIA MADRE (M. Villalba)
EXTD=
EXTT0=
EXTT1=
EXTT2=
EXTT3=
EXTT4=
EXTT5=
EXTT6=
EXTT7=
EXTT8=
EXTT9=
EXTT10=
EXTT11=
EXTT12=
EXTT13=
EXTT14=
EXTT15=
EXTT16=
EXTT17=
EXTT18=
EXTT19=
EXTT20=
EXTT21=
EXTT22=
PLAYORDER=
